<svg width="235" height="38" viewBox="0 0 235 38" fill="none" xmlns="http://www.w3.org/2000/svg">
<g clip-path="url(#clip0_115_7)">
<path d="M41.2524 34.4981V2.31512H54.9814C62.111 2.31512 66.3606 6.45409 66.3606 12.2943C66.3606 18.1346 62.111 22.2705 54.9814 22.2705H47.7498V34.4981H41.2524ZM47.7498 17.1667H54.6813C58.4904 17.1667 60.0548 14.8673 60.0548 12.2943C60.0548 9.72138 58.4904 7.41895 54.6813 7.41895H47.7498V17.1667Z" fill="#00A1FC"/>
<path d="M65.9487 22.9117C65.9487 16.0135 71.3191 10.9578 78.8381 10.9578C86.3571 10.9578 91.6826 16.0135 91.6826 22.9117C91.6826 29.8101 86.3123 34.8658 78.8381 34.8658C71.3638 34.8658 65.9487 29.807 65.9487 22.9117ZM85.6291 22.9117C85.6291 18.7278 82.8929 15.8302 78.8381 15.8302C74.7832 15.8302 72.0023 18.7278 72.0023 22.9117C72.0023 27.0958 74.7385 29.9904 78.8381 29.9904C82.9376 29.9904 85.6291 27.0958 85.6291 22.9117Z" fill="#00A1FC"/>
<path d="M112.047 4.33752H118.057V11.326H124.893V16.0631H118.057V25.856C118.057 28.2005 119.375 29.3968 121.62 29.3968H124.893V34.5066H120.937C115.563 34.5066 112.047 31.564 112.047 26.415V4.33752Z" fill="#00A1FC"/>
<path d="M126.893 22.9117C126.893 16.0135 132.262 10.9578 139.782 10.9578C147.301 10.9578 152.613 16.0135 152.613 22.9117C152.613 29.8101 147.243 34.8658 139.769 34.8658C132.294 34.8658 126.893 29.807 126.893 22.9117ZM146.572 22.9117C146.572 18.7278 143.837 15.8302 139.782 15.8302C135.727 15.8302 132.946 18.7278 132.946 22.9117C132.946 27.0958 135.682 29.9904 139.782 29.9904C143.881 29.9904 146.572 27.0958 146.572 22.9117Z" fill="#00A1FC"/>
<path d="M109.548 11.2856V16.642C109.548 16.642 105.263 16.4285 103.858 16.642C103.006 16.7742 101.419 17.4084 101.419 18.9383V34.2499H94.9121V18.1749C94.9121 18.1749 94.9121 11.2856 101.419 11.2856H109.548Z" fill="#00A1FC"/>
<path fill-rule="evenodd" clip-rule="evenodd" d="M4.41244 1.80956H30.5932C31.178 1.80679 31.7575 1.91281 32.2985 2.12153C32.8395 2.33026 33.3314 2.63757 33.7459 3.02582C34.1604 3.41406 34.4893 3.87558 34.7136 4.38386C34.9381 4.89215 35.0536 5.43716 35.0536 5.9876V31.1941C35.0536 32.3023 34.586 33.365 33.7537 34.1484C32.9215 34.932 31.7927 35.3722 30.6157 35.3722H4.43479C3.85214 35.3722 3.27519 35.2641 2.73693 35.0541C2.19867 34.8441 1.70965 34.5363 1.29779 34.1483C0.885943 33.7603 0.559345 33.2996 0.336664 32.7928C0.113983 32.2859 -0.000417096 31.7427 1.18861e-06 31.1941V5.9876C-0.00085691 4.88343 0.462934 3.8239 1.28988 3.04088C2.11683 2.25786 3.23958 1.81513 4.41244 1.80956ZM31.0019 19.5538C31.0626 19.6349 31.1903 19.5718 31.1903 19.4726C30.9317 17.5579 28.6552 8.33918 8.91423 13.1875C8.88699 13.194 8.86345 13.21 8.84857 13.2325C8.83368 13.2549 8.82861 13.2819 8.83441 13.3077C8.95255 13.8247 9.48254 16.4188 9.42188 20.4735C9.42145 20.49 9.42526 20.5064 9.43297 20.5211C9.4407 20.5359 9.45209 20.5487 9.46621 20.5585C9.48031 20.5682 9.49672 20.5746 9.51402 20.5771C9.53132 20.5796 9.54899 20.5781 9.56555 20.5727C11.2418 19.9896 27.4164 14.8407 31.0019 19.5538ZM5.15743 5.57252C5.14039 5.559 5.12818 5.54088 5.12246 5.52061C5.11674 5.50033 5.11779 5.47889 5.12546 5.45919C5.13314 5.4395 5.14706 5.4225 5.16534 5.41051C5.18363 5.39853 5.20539 5.39212 5.22767 5.39218C23.2222 5.39218 27.5101 11.001 28.3562 12.567C28.3684 12.5877 28.3725 12.6117 28.368 12.6351C28.3634 12.6583 28.3504 12.6793 28.3311 12.6946C28.3119 12.7099 28.2878 12.7184 28.2626 12.7187C28.2375 12.719 28.213 12.711 28.1933 12.6962C22.2931 8.29277 9.79974 11.013 8.4907 11.3136C8.47642 11.3167 8.46163 11.317 8.44723 11.3145C8.43281 11.312 8.41909 11.3069 8.40685 11.2993C8.39463 11.2917 8.38416 11.2819 8.37607 11.2704C8.36798 11.2589 8.36244 11.246 8.35979 11.2324C7.70208 7.899 5.82152 6.11357 5.15743 5.57252ZM23.8913 30.0198C23.9161 30.0249 23.9419 30.022 23.9647 30.0114C25.8643 28.9504 31.6114 25.4757 31.3974 21.6163C31.142 16.9904 13.4571 20.2035 9.21077 22.5631C9.19532 22.5719 9.18251 22.5842 9.17358 22.5989C9.16463 22.6136 9.15984 22.6303 9.15969 22.6473C9.13414 23.2544 8.85956 28.6949 6.30534 32.0463C6.29163 32.0645 6.2846 32.0864 6.2853 32.1086C6.28599 32.1309 6.29438 32.1523 6.30919 32.1696C6.32401 32.187 6.34444 32.1993 6.36736 32.2047C6.39029 32.2102 6.41448 32.2083 6.43624 32.1996C9.69288 30.7989 32.0232 21.3668 23.8274 29.8521C23.8117 29.8709 23.8033 29.8941 23.8035 29.918C23.8038 29.9417 23.8126 29.9648 23.8285 29.9834C23.8445 30.0019 23.8666 30.0147 23.8913 30.0198Z" fill="#00A1FC"/>
</g>
<rect x="160.869" width="2.7266" height="38" rx="1.3633" fill="#012D7B"/>
<path d="M178.152 26.0813C179.467 26.0813 180.425 25.8588 181.025 25.4138C181.625 24.9688 181.925 24.3399 181.925 23.5273C181.925 23.0436 181.818 22.6276 181.605 22.2793C181.412 21.931 181.122 21.6214 180.735 21.3505C180.367 21.0603 179.912 20.7991 179.371 20.5669C178.829 20.3154 178.21 20.0735 177.513 19.8413C176.816 19.5898 176.139 19.3189 175.481 19.0287C174.843 18.7191 174.272 18.3418 173.769 17.8968C173.285 17.4517 172.889 16.9196 172.579 16.3005C172.289 15.6813 172.144 14.9364 172.144 14.0657C172.144 12.2469 172.773 10.8248 174.03 9.79928C175.288 8.75444 177 8.23202 179.167 8.23202C180.425 8.23202 181.538 8.37714 182.505 8.66737C183.492 8.93825 184.266 9.23816 184.827 9.56709L183.695 12.5275C183.037 12.1598 182.312 11.8793 181.518 11.6858C180.744 11.4923 179.941 11.3956 179.109 11.3956C178.123 11.3956 177.349 11.5987 176.787 12.005C176.246 12.4114 175.975 12.9822 175.975 13.7174C175.975 14.1624 176.062 14.5494 176.236 14.8783C176.429 15.1879 176.691 15.4685 177.02 15.72C177.368 15.9716 177.765 16.2037 178.21 16.4166C178.674 16.6294 179.177 16.8326 179.719 17.0261C180.667 17.3743 181.509 17.7323 182.244 18.0999C182.998 18.4482 183.627 18.8739 184.13 19.377C184.653 19.8607 185.049 20.4411 185.32 21.1183C185.591 21.7762 185.727 22.5792 185.727 23.5273C185.727 25.3461 185.078 26.7585 183.782 27.7647C182.505 28.7515 180.628 29.2449 178.152 29.2449C177.32 29.2449 176.555 29.1868 175.859 29.0707C175.181 28.974 174.572 28.8482 174.03 28.6934C173.508 28.5386 173.053 28.3838 172.666 28.229C172.279 28.0549 171.97 27.9001 171.737 27.7647L172.811 24.7753C173.334 25.0655 174.04 25.3557 174.93 25.646C175.82 25.9362 176.894 26.0813 178.152 26.0813ZM191.939 18.7384C191.939 19.8413 192.074 20.8475 192.345 21.7569C192.616 22.6469 193.003 23.4112 193.506 24.0497C194.028 24.6689 194.657 25.1526 195.392 25.5009C196.128 25.8491 196.96 26.0233 197.888 26.0233C198.798 26.0233 199.62 25.8491 200.355 25.5009C201.091 25.1526 201.71 24.6689 202.213 24.0497C202.735 23.4112 203.132 22.6469 203.403 21.7569C203.674 20.8475 203.809 19.8413 203.809 18.7384C203.809 17.6356 203.674 16.6391 203.403 15.749C203.132 14.8396 202.735 14.0754 202.213 13.4562C201.71 12.8177 201.091 12.3243 200.355 11.976C199.62 11.6277 198.798 11.4536 197.888 11.4536C196.96 11.4536 196.128 11.6277 195.392 11.976C194.657 12.3243 194.028 12.8177 193.506 13.4562C193.003 14.0947 192.616 14.859 192.345 15.749C192.074 16.6391 191.939 17.6356 191.939 18.7384ZM207.64 18.7384C207.64 20.4605 207.379 21.9794 206.857 23.2951C206.354 24.6108 205.657 25.7137 204.767 26.6037C203.896 27.4744 202.871 28.1323 201.691 28.5773C200.51 29.0223 199.253 29.2449 197.918 29.2449C196.582 29.2449 195.315 29.0223 194.115 28.5773C192.935 28.1323 191.9 27.4744 191.01 26.6037C190.139 25.7137 189.443 24.6108 188.92 23.2951C188.398 21.9794 188.137 20.4605 188.137 18.7384C188.137 17.0164 188.398 15.5072 188.92 14.2108C189.443 12.8951 190.149 11.7922 191.039 10.9022C191.948 10.0121 192.993 9.34458 194.174 8.89955C195.354 8.45453 196.602 8.23202 197.918 8.23202C199.233 8.23202 200.481 8.45453 201.662 8.89955C202.842 9.34458 203.867 10.0121 204.738 10.9022C205.628 11.7922 206.334 12.8951 206.857 14.2108C207.379 15.5072 207.64 17.0164 207.64 18.7384ZM216.273 26.0813C217.589 26.0813 218.546 25.8588 219.146 25.4138C219.746 24.9688 220.046 24.3399 220.046 23.5273C220.046 23.0436 219.94 22.6276 219.727 22.2793C219.533 21.931 219.243 21.6214 218.856 21.3505C218.488 21.0603 218.034 20.7991 217.492 20.5669C216.95 20.3154 216.331 20.0735 215.634 19.8413C214.938 19.5898 214.261 19.3189 213.603 19.0287C212.964 18.7191 212.393 18.3418 211.89 17.8968C211.407 17.4517 211.01 16.9196 210.7 16.3005C210.41 15.6813 210.265 14.9364 210.265 14.0657C210.265 12.2469 210.894 10.8248 212.152 9.79928C213.409 8.75444 215.122 8.23202 217.289 8.23202C218.546 8.23202 219.659 8.37714 220.626 8.66737C221.613 8.93825 222.387 9.23816 222.948 9.56709L221.816 12.5275C221.158 12.1598 220.433 11.8793 219.64 11.6858C218.866 11.4923 218.063 11.3956 217.231 11.3956C216.244 11.3956 215.47 11.5987 214.909 12.005C214.367 12.4114 214.096 12.9822 214.096 13.7174C214.096 14.1624 214.183 14.5494 214.357 14.8783C214.551 15.1879 214.812 15.4685 215.141 15.72C215.489 15.9716 215.886 16.2037 216.331 16.4166C216.795 16.6294 217.298 16.8326 217.84 17.0261C218.788 17.3743 219.63 17.7323 220.365 18.0999C221.12 18.4482 221.749 18.8739 222.252 19.377C222.774 19.8607 223.171 20.4411 223.442 21.1183C223.713 21.7762 223.848 22.5792 223.848 23.5273C223.848 25.3461 223.2 26.7585 221.903 27.7647C220.626 28.7515 218.75 29.2449 216.273 29.2449C215.441 29.2449 214.677 29.1868 213.98 29.0707C213.303 28.974 212.693 28.8482 212.152 28.6934C211.629 28.5386 211.174 28.3838 210.788 28.229C210.401 28.0549 210.091 27.9001 209.859 27.7647L210.933 24.7753C211.455 25.0655 212.161 25.3557 213.051 25.646C213.941 25.9362 215.015 26.0813 216.273 26.0813Z" fill="#012D7B"/>
<defs>
<clipPath id="clip0_115_7">
<rect width="153.598" height="34.3809" fill="white" transform="translate(0 1.80951)"/>
</clipPath>
</defs>
</svg>
