<svg width="46" height="46" viewBox="0 0 46 46" fill="none" xmlns="http://www.w3.org/2000/svg">
<g clip-path="url(#clip0_97_1160)">
<rect x="0.911133" y="0.400024" width="44.7778" height="44.7778" rx="22.3889" fill="#EBEBEB"/>
<path fill-rule="evenodd" clip-rule="evenodd" d="M23.2997 22.0311C25.453 22.0311 27.5181 21.2182 29.0407 19.7713C30.5633 18.3243 31.4187 16.3619 31.4187 14.3156C31.4187 12.2693 30.5633 10.3068 29.0407 8.85984C27.5181 7.41289 25.453 6.60001 23.2997 6.60001C21.1464 6.60001 19.0813 7.41289 17.5586 8.85984C16.036 10.3068 15.1806 12.2693 15.1806 14.3156C15.1806 16.3619 16.036 18.3243 17.5586 19.7713C19.0813 21.2182 21.1464 22.0311 23.2997 22.0311ZM4.35522 45.1778C4.35522 42.8136 4.84524 40.4726 5.79728 38.2883C6.74933 36.1041 8.14477 34.1195 9.90392 32.4478C11.6631 30.776 13.7515 29.4499 16.0499 28.5452C18.3484 27.6405 20.8118 27.1748 23.2997 27.1748C25.7875 27.1748 28.2509 27.6405 30.5494 28.5452C32.8478 29.4499 34.9363 30.776 36.6954 32.4478C38.4546 34.1195 39.85 36.1041 40.8021 38.2883C41.7541 40.4726 42.2441 42.8136 42.2441 45.1778H4.35522Z" fill="#C0C0C0"/>
</g>
<defs>
<clipPath id="clip0_97_1160">
<rect x="0.911133" y="0.400024" width="44.7778" height="44.7778" rx="22.3889" fill="white"/>
</clipPath>
</defs>
</svg>
